{"title":"Hansel And Gretel 2013 NEWCAM XviD AC3 - TODE","uid":8097647,"size":731769737,"categoryP":"video","categoryS":"movies","magnet":"?xt=urn:btih:237b83520aba283c15d004c60f5162434f59ba20&amp;dn=Hansel+And+Gretel+2013+NEWCAM+XviD+AC3+-+TODE&amp;tr=udp%3A%2F%2Ftracker.openbittorrent.com%3A80&amp;tr=udp%3A%2F%2Fopen.demonii.com%3A1337&amp;tr=udp%3A%2F%2Ftracker.coppersurfer.tk%3A6969&amp;tr=udp%3A%2F%2Fexodus.desync.com%3A6969","seeders":1,"leechers":0,"uploader":"xxxlavalxxx","files":2,"time":1359852300,"description":" &lt;a href=&quot;http://bayimg.com/DaJEOaAEe&quot; rel=&quot;nofollow&quot; target=&quot;_NEW&quot;&gt;http://bayimg.com/DaJEOaAEe&lt;/a&gt;\n\n\n\n[url]http://www.imdb.com/title/tt1428538/[/url]\n\n\n\n[b] Plot:In this spin on the fairy tale, Hansel &amp; Gretel are now bounty hunters who track and kill witches all over the world. As the fabled Blood Moon approaches, the siblings encounter a new form of evil that might hold a secret to their past. \n\n\n\nDirector:\n Tommy Wirkola\n\nWriter:\n Tommy Wirkola\n\nStars:\n Jeremy Renner, Gemma Arterton, Peter Stormare\n\nGenres:\n Action | Fantasy | Horror \n\nCountry:\nGermany|USA\n\nLanguage:\nEnglish [/b]\n\n\nFormat                                   : AVI\nFormat/Info                              : Audio Video Interleave\nFile size                                : 698 MiB\nDuration                                 : 1h 20mn\nOverall bit rate                         : 1 216 Kbps\nWriting application                      : Lavf54.59.103\n\nVideo\nID                                       : 0\nFormat                                   : MPEG-4 Visual\nFormat profile                           : Simple@L3\nFormat settings, BVOP                    : No\nFormat settings, QPel                    : No\nFormat settings, GMC                     : No warppoints\nFormat settings, Matrix                  : Default (H.263)\nCodec ID                                 : XVID\nCodec ID/Hint                            : XviD\nDuration                                 : 1h 20mn\nBit rate                                 : 1 140 Kbps\nWidth                                    : 640 pixels\nHeight                                   : 296 pixels\nDisplay aspect ratio                     : 2.118\nFrame rate                               : 29.970 fps\nColor space                              : YUV\nChroma subsampling                       : 4:2:0\nBit depth                                : 8 bits\nScan type                                : Progressive\nCompression mode                         : Lossy\nBits/(Pixel*Frame)                       : 0.201\nStream size                              : 654 MiB (94%)\nWriting library                          : XviD 64\n\nAudio\nID                                       : 1\nFormat                                   : AC-3\nFormat/Info                              : Audio Coding 3\nMode extension                           : CM (complete main)\nFormat settings, Endianness              : Big\nCodec ID                                 : 2000\nDuration                                 : 1h 20mn\nBit rate mode                            : Constant\nBit rate                                 : 64.0 Kbps\nChannel(s)                               : 2 channels\nChannel positions                        : Front: L R\nSampling rate                            : 48.0 KHz\nBit depth                                : 16 bits\nCompression mode                         : Lossy\nStream size                              : 36.7 MiB (5%)\nAlignment                                : Aligned on interleaves\nInterleave, duration                     : 32 ms (0.96 video frame)\n\n\n &lt;a href=&quot;\nhttp://bayimg.com/DAJEPaaee&quot; rel=&quot;nofollow&quot; target=&quot;_NEW&quot;&gt;\nhttp://bayimg.com/DAJEPaaee&lt;/a&gt;\n &lt;a href=&quot;\nhttp://bayimg.com/eAjEAAAeE&quot; rel=&quot;nofollow&quot; target=&quot;_NEW&quot;&gt;\nhttp://bayimg.com/eAjEAAAeE&lt;/a&gt;\n &lt;a href=&quot;\nhttp://bayimg.com/EAJEbAAee&quot; rel=&quot;nofollow&quot; target=&quot;_NEW&quot;&gt;\nhttp://bayimg.com/EAJEbAAee&lt;/a&gt;\n &lt;a href=&quot;\nhttp://bayimg.com/eajecAAee&quot; rel=&quot;nofollow&quot; target=&quot;_NEW&quot;&gt;\nhttp://bayimg.com/eajecAAee&lt;/a&gt;","torrent":{"xt":"urn:btih:237b83520aba283c15d004c60f5162434f59ba20","amp;dn":"Hansel+And+Gretel+2013+NEWCAM+XviD+AC3+-+TODE","amp;tr":["udp%3A%2F%2Ftracker.openbittorrent.com%3A80","udp%3A%2F%2Fopen.demonii.com%3A1337","udp%3A%2F%2Ftracker.coppersurfer.tk%3A6969","udp%3A%2F%2Fexodus.desync.com%3A6969"],"infoHash":"237b83520aba283c15d004c60f5162434f59ba20","infoHashBuffer":{"type":"Buffer","data":[35,123,131,82,10,186,40,60,21,208,4,198,15,81,98,67,79,89,186,32]},"announce":[],"urlList":[]}}